#N canvas 827 239 527 327 12;
#N canvas 0 50 450 250 (subpatch) 0;
#X text 0 0 plugdatainfo <?xml version="1.0" encoding="UTF-8"?> <PlugDataInfo/>
;
#X coords 0 1 100 -1 1 1 1;
#X restore 0 0 graph;
#X obj 301 119 *~;
#X obj 381 104 hsl 128 17 0 1 0 0 empty empty Input\ Volume -2 -8 0
10 #e4e4e4 #0000ff #5a5a5a 0 1;
#X obj 407 292 *~;
#X obj 445 296 hsl 161 17 0 2 0 0 empty empty Feedback\ Volume -2 -8
0 10 #e4e4e4 #0000ff #5a5a5a 0 1;
#X obj 313 363 *~;
#X obj 326 321 hsl 128 17 0 1 1 0 empty empty Volume -2 -8 0 10 #e4e4e4
#0000ff #5a5a5a 0 1;
#X obj 353 642 dac~;
#X obj 407 230 hsl 161 17 0 1000 0 0 empty empty Delay\ Time -2 -8
0 10 #e4e4e4 #0000ff #5a5a5a 0 1;
#X obj 301 52 nbx 4 21 -1e+37 1e+37 0 0 empty empty empty 0 -8 0 10
#e4e4e4 #5a5a5a #5a5a5a 0 256;
#X obj 589 119 *~;
#X obj 669 104 hsl 128 17 0 1 0 0 empty empty Input\ Volume -2 -8 0
10 #e4e4e4 #0000ff #5a5a5a 0 1;
#X obj 695 292 *~;
#X obj 733 296 hsl 161 17 0 2 0 0 empty empty Feedback\ Volume -2 -8
0 10 #e4e4e4 #0000ff #5a5a5a 0 1;
#X obj 611 381 *~;
#X obj 695 230 hsl 161 17 0 1000 0 0 empty empty Delay\ Time -2 -8
0 10 #e4e4e4 #0000ff #5a5a5a 0 1;
#X obj 589 52 nbx 4 21 -1e+37 1e+37 0 0 empty empty empty 0 -8 0 10
#e4e4e4 #5a5a5a #5a5a5a 0 256;
#X obj 301 82 osc~;
#X obj 589 82 osc~;
#X obj 621 328 hsl 128 17 0 1 1 0 empty empty Volume -2 -8 0 10 #e4e4e4
#0000ff #5a5a5a 0 1;
#X obj 340 475 *~;
#X obj 389 477 hsl 128 17 0 1 0 0 empty empty Main\ Volume -2 -8 0
10 #e4e4e4 #0000ff #5a5a5a 0 1;
#X obj 373 178 delwrite~ feedback 1000;
#X obj 407 255 delread~ feedback 100;
#X obj 661 178 delwrite~ feedback2 1000;
#X obj 695 255 delread~ feedback2 100;
#X obj 917 110 *~;
#X obj 1009 104 hsl 128 17 0 1 0 0 empty empty Input\ Volume -2 -8
0 10 #e4e4e4 #0000ff #5a5a5a 0 1;
#X obj 1035 292 *~;
#X obj 1073 296 hsl 161 17 0 2 0 0 empty empty Feedback\ Volume -2
-8 0 10 #e4e4e4 #0000ff #5a5a5a 0 1;
#X obj 951 381 *~;
#X obj 1035 230 hsl 161 17 0 1000 0 0 empty empty Delay\ Time -2 -8
0 10 #e4e4e4 #0000ff #5a5a5a 0 1;
#X obj 970 328 hsl 128 17 0 1 1 0 empty empty Volume -2 -8 0 10 #e4e4e4
#0000ff #5a5a5a 0 1;
#X obj 917 73 noise~;
#X obj 1001 178 delwrite~ feedback3 1000;
#X obj 1035 255 delread~ feedback3 100;
#X obj 407 561 rev2~;
#X obj 533 422 vsl 17 128 0 100 0 0 empty empty empty 0 -9 0 10 #e4e4e4
#0000ff #5a5a5a 0 1;
#X obj 551 422 vsl 17 128 0 100 0 0 empty empty empty 0 -9 0 10 #e4e4e4
#0000ff #5a5a5a 0 1;
#X obj 573 422 vsl 17 128 0 20000 0 0 empty empty empty 0 -9 0 10 #e4e4e4
#0000ff #5a5a5a 0 1;
#X obj 597 421 vsl 17 128 0 100 0 0 empty empty empty 0 -9 0 10 #e4e4e4
#0000ff #5a5a5a 0 1;
#N canvas 0 50 450 250 (subpatch) 0;
#X array Output 2000 float 0;
#X coords 0 1 1999 -1 200 140 1;
#X restore 633 422 graph;
#X obj 468 642 tabwrite~ Output;
#X obj 539 618 metro 50;
#X obj 539 586 bng 25 250 50 0 empty empty empty 17 7 0 10 #e4e4e4
#828282 #5a5a5a;
#X obj 407 391 *~;
#X obj 414 358 hsl 128 17 0 1 1 0 empty empty Volume -2 -8 0 10 #e4e4e4
#0000ff #5a5a5a 0 1;
#X obj 407 421 *~ 0.1;
#X obj 565 586 loadbang;
#X connect 1 0 5 0;
#X connect 1 0 22 0;
#X connect 2 0 1 1;
#X connect 3 0 22 0;
#X connect 3 0 5 0;
#X connect 4 0 3 1;
#X connect 5 0 45 0;
#X connect 6 0 5 1;
#X connect 8 0 23 0;
#X connect 9 0 17 0;
#X connect 10 0 14 0;
#X connect 10 0 24 0;
#X connect 11 0 10 1;
#X connect 12 0 24 0;
#X connect 12 0 14 0;
#X connect 13 0 12 1;
#X connect 14 0 45 0;
#X connect 15 0 25 0;
#X connect 16 0 18 0;
#X connect 17 0 1 0;
#X connect 18 0 10 0;
#X connect 19 0 14 1;
#X connect 20 0 36 0;
#X connect 20 0 42 0;
#X connect 20 0 7 0;
#X connect 20 0 7 1;
#X connect 21 0 20 1;
#X connect 23 0 3 0;
#X connect 25 0 12 0;
#X connect 26 0 30 0;
#X connect 26 0 34 0;
#X connect 27 0 26 1;
#X connect 28 0 30 0;
#X connect 28 0 34 0;
#X connect 29 0 28 1;
#X connect 30 0 45 0;
#X connect 31 0 35 0;
#X connect 32 0 30 1;
#X connect 33 0 26 0;
#X connect 35 0 28 0;
#X connect 36 2 7 0;
#X connect 36 3 7 1;
#X connect 37 0 36 1;
#X connect 38 0 36 2;
#X connect 39 0 36 3;
#X connect 40 0 36 4;
#X connect 43 0 42 0;
#X connect 44 0 43 0;
#X connect 45 0 47 0;
#X connect 46 0 45 1;
#X connect 47 0 20 0;
#X connect 48 0 44 0;
